<?xml version="1.0" encoding="UTF-8" standalone="no"?>
<svg
   id="keymapdb"
   version="1.1"
   width="400"
   height="417.28394"
   viewBox="0 0 400 417.28395"
   sodipodi:docname="light.svg"
   inkscape:version="1.1.2 (0a00cf5339, 2022-02-04)"
   xmlns:inkscape="http://www.inkscape.org/namespaces/inkscape"
   xmlns:sodipodi="http://sodipodi.sourceforge.net/DTD/sodipodi-0.dtd"
   xmlns="http://www.w3.org/2000/svg"
   xmlns:svg="http://www.w3.org/2000/svg"
   xmlns:rdf="http://www.w3.org/1999/02/22-rdf-syntax-ns#"
   xmlns:cc="http://creativecommons.org/ns#"
   xmlns:dc="http://purl.org/dc/elements/1.1/">
  <title
     id="logo title">KeymapDB</title>
  <metadata
     id="logo metadata">
    <rdf:RDF>
      <cc:Work
         rdf:about="">
        <dc:format>image/svg+xml</dc:format>
        <dc:type
           rdf:resource="http://purl.org/dc/dcmitype/StillImage" />
        <dc:title>KeymapDB</dc:title>
        <dc:creator>
          <cc:Agent>
            <dc:title>precondition</dc:title>
          </cc:Agent>
        </dc:creator>
        <dc:description>Treasure map on a keycap</dc:description>
        <dc:subject>
          <rdf:Bag>
            <rdf:li>keycap</rdf:li>
            <rdf:li>keyboard</rdf:li>
            <rdf:li>X</rdf:li>
            <rdf:li>map</rdf:li>
            <rdf:li>treasure</rdf:li>
          </rdf:Bag>
        </dc:subject>
        <cc:license
           rdf:resource="http://creativecommons.org/publicdomain/zero/1.0/" />
      </cc:Work>
      <cc:License
         rdf:about="http://creativecommons.org/publicdomain/zero/1.0/">
        <cc:permits
           rdf:resource="http://creativecommons.org/ns#Reproduction" />
        <cc:permits
           rdf:resource="http://creativecommons.org/ns#Distribution" />
        <cc:permits
           rdf:resource="http://creativecommons.org/ns#DerivativeWorks" />
      </cc:License>
    </rdf:RDF>
  </metadata>
  <defs
     id="defs5337">
    <linearGradient
       id="linearGradient10626"
       inkscape:swatch="solid">
      <stop
         style="stop-color:#ac2626;stop-opacity:1;"
         offset="0"
         id="stop10624" />
    </linearGradient>
  </defs>
  <sodipodi:namedview
     pagecolor="#ffffff"
     bordercolor="#666666"
     borderopacity="1"
     objecttolerance="10"
     gridtolerance="10"
     guidetolerance="10"
     inkscape:pageopacity="0"
     inkscape:pageshadow="2"
     inkscape:window-width="1600"
     inkscape:window-height="874"
     id="namedview5335"
     showgrid="false"
     inkscape:snap-global="true"
     inkscape:snap-center="false"
     inkscape:zoom="1.0000001"
     inkscape:cx="125.49999"
     inkscape:cy="199.49998"
     inkscape:window-x="0"
     inkscape:window-y="25"
     inkscape:window-maximized="1"
     inkscape:current-layer="keymapdb"
     inkscape:pagecheckerboard="true"
     inkscape:snap-nodes="true" />
  <g
     inkscape:groupmode="layer"
     id="layer1"
     inkscape:label="Layer 1" />
  <path
     id="outline"
     d="m 232.099,3.545 c -4.753,1.767 -18.971,7.283 -31.594,12.258 -12.624,4.976 -47.624,17.983 -77.778,28.904 C 65.112,65.573 53.062,71.309 50.611,79.033 49.788,81.626 38.428,101.849 25.366,123.972 -7.445,179.55 -7.372,177.963 20.381,232.1 c 11.487,22.407 34.444,67.719 51.014,100.695 42.343,84.261 52.631,93.458 90.249,80.687 24.878,-8.447 227.633,-98.122 232.8,-102.964 8.502,-7.967 7.065,-17.099 -10.076,-64.022 C 375.771,222.96 368.028,200.129 367.162,195.76 365.33,186.515 266.564,16.13 258.511,8.32 251.216,1.247 242.518,-0.326 232.099,3.545 m 24.169,7.01 c 10.259,10.92 104.693,175.619 106.003,184.876 1.728,12.211 3.616,11.201 -97.255,52.031 -96.758,39.165 -103.38,40.76 -116.616,28.084 C 141.081,268.538 62.003,120.442 54.627,99.932 46.406,77.069 49.705,74.721 132.099,44.796 166.049,32.466 203.272,18.502 214.815,13.765 239.806,3.51 248.982,2.799 256.268,10.555 M 96.99,192.593 c 21.115,40.061 42.56,77.686 47.656,83.609 l 9.265,10.77 -5.4,53.428 c -7.568,74.868 -7.485,74.921 8.279,5.239 14.139,-62.496 13.163,-59.219 17.635,-59.219 2.047,0 43.632,-16.111 92.41,-35.803 48.778,-19.691 89.572,-35.802 90.651,-35.802 3.276,0 40.045,73.495 40.045,80.043 0,12.73 -8.532,17.38 -122.222,66.619 C 105.845,434.87 131.29,444.699 44.64,272.368 -6.458,170.743 -5.51,181.358 31.083,120.624 l 16.409,-27.233 5.553,13.181 c 3.055,7.25 22.83,45.959 43.945,86.021"
     inkscape:connector-curvature="0"
     style="fill:#414141;fill-rule:evenodd;stroke:none;fill-opacity:1;stroke-width:279.2;stroke-miterlimit:4;stroke-dasharray:none" />
  <path
     style="fill:#ebebeb;stroke-width:1.25027251;fill-opacity:1"
     d="M 133.30151,409.59632 C 121.45459,406.40117 110.86002,396.61758 99.504352,378.38618 89.44528,362.23645 13.105347,208.26077 9.0794439,196.00146 6.0162634,186.67374 5.5889421,183.7096 6.0812912,175.20456 6.7863985,163.02425 9.6670214,156.90836 32.002884,120.17009 L 47.473463,94.723915 50.209536,101.416 c 3.500519,8.56184 27.745506,56.55771 45.695798,90.46035 22.314096,42.14452 43.480326,78.62812 50.682096,87.35915 l 6.68326,8.10243 -4.95259,49.58623 c -5.21978,52.26126 -5.81786,61.98738 -3.68037,59.84989 0.69974,-0.69974 6.31758,-23.17651 12.4841,-49.94838 13.73694,-59.63885 13.25059,-57.90504 16.63847,-59.31523 1.50558,-0.62669 10.61414,-4.06046 20.24124,-7.6306 9.6271,-3.57015 49.74394,-19.34588 89.14854,-35.05718 39.40459,-15.7113 72.41793,-28.566 73.36298,-28.566 0.94504,0 3.69684,3.2571 6.1151,7.23799 5.84221,9.6173 30.96264,60.70129 33.22382,67.56274 4.54859,13.80244 -3.12685,18.41173 -104.95432,63.02772 -25.09922,10.9973 -59.13789,25.89902 -75.64149,33.11494 -32.75567,14.32189 -50.59705,20.75711 -63.13876,22.77359 -9.93545,1.59744 -11.61908,1.56368 -18.8159,-0.37732 z"
     id="keycap sides background"
     inkscape:connector-curvature="0" />
  <path
     style="opacity:1;fill:#f5f5f5;fill-opacity:1;stroke:none;stroke-width:0;stroke-miterlimit:4;stroke-dasharray:none;stroke-dashoffset:0;stroke-opacity:1"
     d="m 155.93536,280.40109 c -7.11531,-3.23242 -10.6167,-8.3738 -31.75949,-46.63501 C 94.206198,179.53119 56.891515,106.87968 53.993721,97.121747 c -0.852377,-2.870261 -1.549775,-7.371324 -1.549775,-10.00236 0,-11.622324 7.09421,-15.255203 87.999994,-45.063975 23.92499,-8.81488 53.39999,-19.845608 65.49999,-24.512729 41.36825,-15.9562477 44.3605,-15.8641274 55.97992,1.723416 18.48471,27.979039 83.37877,141.063211 96.66443,168.447081 2.12422,4.37838 3.85563,9.45072 3.85563,11.29546 0,7.90489 -6.70185,11.32202 -82.50527,42.06764 -67.55221,27.39895 -90.08142,35.90211 -103.99471,39.25049 -9.94063,2.39232 -14.86584,2.41062 -20.00857,0.0743 z m 20.50857,-61.48434 v -4.34933 l -10.25,-0.5831 c -5.6375,-0.3207 -10.99271,-0.86946 -11.90047,-1.21946 -1.31554,-0.50724 -1.79229,0.20299 -2.34928,3.49981 -0.38434,2.2749 -0.45856,4.37642 -0.16493,4.67006 0.86773,0.86773 10.64704,2.07227 17.91468,2.20659 l 6.75,0.12476 z m 38.02437,-0.80141 10.10049,-2.15074 -0.67667,-4.09926 c -0.37217,-2.25459 -0.75117,-4.18767 -0.84222,-4.29572 -0.0911,-0.10805 -5.32715,0.84167 -11.63576,2.11049 -11.07458,2.22738 -11.48141,2.40091 -11.79478,5.03093 -0.7517,6.30864 0.1926,6.52514 14.84894,3.4043 z m -83.57758,-10.79372 2.82097,-2.94445 -4.04967,-4.60068 c -2.22732,-2.53037 -4.85215,-6.83226 -5.83294,-9.55975 -1.89241,-5.26261 -1.77444,-5.22142 -8.13671,-2.84128 -2.22891,0.83383 -2.23465,0.88532 -0.57011,5.11647 2.84727,7.23755 10.15162,17.77415 12.32168,17.77415 0.3442,0 1.89525,-1.32501 3.44678,-2.94446 z m 129.3032,-2.05601 c 5.6375,-1.82814 10.25,-3.85876 10.25,-4.51249 0,-2.6498 -2.31248,-7.58177 -3.36918,-7.18566 -0.62195,0.23314 -5.77359,1.94132 -11.44807,3.79595 l -10.31726,3.37207 0.65804,3.50768 c 0.81597,4.34947 1.36401,5.27064 2.82763,4.7528 0.63187,-0.22356 5.76135,-1.90222 11.39884,-3.73035 z m 97.25,-9.28884 c 0,-6.09861 -6.8313,-14.36151 -13.91478,-16.83083 -3.71433,-1.29482 -4.59985,-0.68413 -5.54994,3.82744 -0.62159,2.95162 -0.40422,3.32062 2.72674,4.62882 3.76694,1.57393 7.73798,6.0038 7.73798,8.63207 0,2.44206 0.43936,2.63813 4.94805,2.20815 3.31286,-0.31593 4.05195,-0.76567 4.05195,-2.46565 z m -53.56166,-6.59156 c 4.36608,-1.16552 8.75358,-2.11913 9.75,-2.11913 1.9191,0 2.33191,-2.45453 1.1533,-6.85736 -0.53974,-2.01626 -1.098,-2.28158 -3.85814,-1.83367 -4.64196,0.75328 -18.78416,4.64078 -20.30748,5.58224 -1.87534,1.15903 1.64824,8.40369 3.78811,7.78855 0.84473,-0.24283 5.10812,-1.39512 9.47421,-2.56063 z M 133.69394,155.82755 c 2.6125,-1.51333 4.75,-3.09159 4.75,-3.50726 0,-2.20788 -2.36524,-7.0542 -3.44279,-7.0542 -3.969,0 -19.55721,13.03456 -19.55721,16.35336 0,0.70608 1.4625,1.98254 3.25,2.83659 3.23045,1.54347 3.27105,1.53046 6.75,-2.1621 1.925,-2.04319 5.6375,-4.95307 8.25,-6.46639 z m 98.74999,-12.06146 v -4.5 h -12.5 -12.5 v 3.91667 c 0,2.19766 0.54862,4.13804 1.25,4.42105 0.6875,0.27741 6.3125,0.53991 12.5,0.58333 l 11.25,0.0789 z m -53.25,2.50711 5.25,-0.007 v -4.5 -4.5 l -6.25,0.0844 c -7.36998,0.0995 -17.42966,1.26195 -18.28005,2.11234 -0.32941,0.3294 -0.28368,2.27925 0.1016,4.333 l 0.70052,3.73408 6.61397,-0.62479 c 3.63768,-0.34364 8.97646,-0.62799 11.86396,-0.6319 z m 94.11142,-3.09955 c 4.11208,-1.05169 7.64431,-2.07996 7.84939,-2.28504 0.20508,-0.20509 -0.35678,-2.19645 -1.24857,-4.42526 l -1.62144,-4.05238 -3.80751,1.34337 c -2.09413,0.73885 -7.23332,1.91901 -11.42041,2.62256 -7.30698,1.22779 -7.61288,1.38862 -7.61288,4.0024 0,5.35999 0.84194,6.13758 5.83481,5.38885 2.50255,-0.37528 7.91452,-1.5428 12.02661,-2.5945 z M 99.579984,132.63632 c 1.139046,-1.02619 1.852906,-4.07741 2.349936,-10.04415 l 0.71389,-8.57021 6.17697,6.12207 c 4.52527,4.48504 6.90512,6.12206 8.90006,6.12206 3.78495,0 6.7231,-3.24503 6.7231,-7.42531 0,-3.10595 -0.79997,-4.05928 -8.58003,-10.22485 -7.44978,-5.90382 -8.51602,-7.13216 -8.09413,-9.324682 1.89086,-9.826629 2.82786,-18.276617 2.27216,-20.490695 -1.21746,-4.85076 -9.02245,-5.621959 -12.121328,-1.19769 -0.864312,1.233977 -1.482333,4.400434 -1.490326,7.635736 -0.0075,3.040121 -0.299444,6.59525 -0.648742,7.900285 -0.601262,2.246415 -0.936861,2.046685 -6.300988,-3.75 -4.654458,-5.029787 -6.23453,-6.122791 -8.851256,-6.122791 -4.034106,0 -7.185356,3.064031 -7.185356,6.986483 0,2.516356 1.338055,4.119927 8.499999,10.186684 9.336865,7.90908 9.237289,7.65549 6.999999,17.82683 -2.164137,9.83876 -1.949729,12.50108 1.206719,14.98394 2.931453,2.30589 6.442282,2.07738 9.429323,-0.61371 z M 298.95061,116.40816 c -0.76566,-4.12882 -5.39497,-13.16546 -9.03597,-17.638654 l -2.43909,-2.996584 -3.14454,3.14454 -3.14454,3.144538 2.5145,3.35205 c 3.31275,4.41617 6.74295,11.31905 6.74295,13.56941 0,1.52146 0.70404,1.74105 4.59104,1.4319 l 4.59104,-0.36514 z M 162.44393,104.19744 c 5.225,-2.31784 9.68526,-4.373363 9.9117,-4.567833 0.43471,-0.373342 -2.00312,-8.363515 -2.55174,-8.363515 -1.63563,0 -21.65079,9.594338 -22.01948,10.555118 -0.70389,1.8343 2.58161,7.69858 3.97712,7.09873 0.65033,-0.27954 5.45741,-2.40466 10.6824,-4.7225 z m 41.5,-14.294044 c 3.3,-0.807432 7.95286,-1.77751 10.33968,-2.15573 3.82092,-0.605469 4.27083,-0.94432 3.76366,-2.834623 -0.31682,-1.180822 -0.58218,-3.179841 -0.58969,-4.442263 -0.0125,-2.097943 -0.33611,-2.240319 -3.76365,-1.655758 -8.09373,1.380369 -21.24971,4.652818 -21.24442,5.284388 0.003,0.366676 0.48021,2.375891 1.06032,4.464924 0.79368,2.858102 1.47298,3.67558 2.74442,3.30268 0.92933,-0.272558 4.38968,-1.156186 7.68968,-1.963618 z m 61.1144,-3.937541 c 1.12965,-3.262895 1.07912,-3.793414 -0.43867,-4.60571 -2.46234,-1.317801 -16.45433,-4.094052 -20.63357,-4.094052 -3.51397,0 -3.54216,0.03466 -3.54216,4.354963 v 4.354963 l 6.75,0.587171 c 3.7125,0.322945 8.55,1.254735 10.75,2.070645 5.14816,1.909293 5.58664,1.744859 7.1144,-2.66798 z"
     id="keycap top background"
     inkscape:connector-curvature="0" />
  <g
     aria-label="X"
     transform="rotate(-20.282523)"
     id="treasure X"
     style="fill:#ff0000">
    <path
       d="m 68.572074,105.95443 q 0,0 0.166667,0 4.458333,0 6.333333,3.29167 1.666667,3.04166 -0.333333,6.45833 l -9.791667,17.16667 9.791667,16.125 q 2.083333,3.45833 0.333333,6.83333 -1.75,3.375 -6.333333,3.375 h -0.166667 q -4.041667,0 -5.541667,-3.375 l -6.458333,-14.16666 -6.458334,14.16666 q -1.541667,3.33334 -5.541667,3.375 0,0 -0.916666,0 -3.708334,0 -5.583334,-3.33333 -1.833333,-3.33333 0.333334,-6.875 l 9.833333,-16.125 -9.833333,-17.16667 q -1.916667,-3.33333 -0.291667,-6.45833 1.625,-3.29167 5.541667,-3.29167 h 0.916666 q 4.083334,0 5.541667,3.375 l 6.458334,14.70833 6.458333,-14.70833 q 1.458334,-3.375 5.541667,-3.375 z"
       id="treasureXpath" />
  </g>
  <path
     style="fill:none;stroke:#363636;stroke-width:8;stroke-linecap:butt;stroke-linejoin:miter;stroke-miterlimit:4;stroke-dasharray:24,24;stroke-dashoffset:0;stroke-opacity:1"
     d="m 149.1688,105.3741 c 0,0 100.83967,-53.376586 139.13322,-1.30187 38.29355,52.07474 -102.11613,37.75419 -102.11613,37.75419 0,0 -93.18096,-3.90561 -65.09903,53.37659 28.08194,57.2822 173.59742,-7.81121 173.59742,-7.81121 0,0 54.88741,-19.52802 58.71677,10.41495"
     id="dashed path"
     inkscape:connector-curvature="0" />
</svg>
