<?xml version="1.0" encoding="UTF-8"?>
<svg version="1.1" viewBox="0 0 400 417.28" xmlns="http://www.w3.org/2000/svg" xmlns:cc="http://creativecommons.org/ns#" xmlns:dc="http://purl.org/dc/elements/1.1/" xmlns:rdf="http://www.w3.org/1999/02/22-rdf-syntax-ns#">
<title>KeymapDB</title>
<path d="m232.1 3.545c-4.753 1.767-18.971 7.283-31.594 12.258-12.624 4.976-47.624 17.983-77.778 28.904-57.615 20.866-69.665 26.602-72.116 34.326-0.823 2.593-12.183 22.816-25.245 44.939-32.811 55.578-32.738 53.991-4.985 108.13 11.487 22.407 34.444 67.719 51.014 100.7 42.343 84.261 52.631 93.458 90.249 80.687 24.878-8.447 227.63-98.122 232.8-102.96 8.502-7.967 7.065-17.099-10.076-64.022-8.597-23.536-16.34-46.367-17.206-50.736-1.832-9.245-100.6-179.63-108.65-187.44-7.295-7.073-15.993-8.646-26.412-4.775m24.169 7.01c10.259 10.92 104.69 175.62 106 184.88 1.728 12.211 3.616 11.201-97.255 52.031-96.758 39.165-103.38 40.76-116.62 28.084-7.319-7.008-86.397-155.1-93.773-175.61-8.221-22.863-4.922-25.211 77.472-55.136 33.95-12.33 71.173-26.294 82.716-31.031 24.991-10.255 34.167-10.966 41.453-3.21m-159.28 182.04c21.115 40.061 42.56 77.686 47.656 83.609l9.265 10.77-5.4 53.428c-7.568 74.868-7.485 74.921 8.279 5.239 14.139-62.496 13.163-59.219 17.635-59.219 2.047 0 43.632-16.111 92.41-35.803 48.778-19.691 89.572-35.802 90.651-35.802 3.276 0 40.045 73.495 40.045 80.043 0 12.73-8.532 17.38-122.22 66.619-169.46 73.393-144.02 83.222-230.67-89.109-51.098-101.62-50.15-91.01-13.557-151.74l16.409-27.233 5.553 13.181c3.055 7.25 22.83 45.959 43.945 86.021" fill="#414141" fill-rule="evenodd"/>
<path d="m133.3 409.6c-11.847-3.1952-22.441-12.979-33.797-31.21-10.059-16.15-86.399-170.13-90.425-182.38-3.0632-9.3277-3.4905-12.292-2.9982-20.797 0.70511-12.18 3.5857-18.296 25.922-55.034l15.471-25.446 2.7361 6.6921c3.5005 8.5618 27.746 56.558 45.696 90.46 22.314 42.145 43.48 78.628 50.682 87.359l6.6833 8.1024-4.9526 49.586c-5.2198 52.261-5.8179 61.987-3.6804 59.85 0.69974-0.69974 6.3176-23.177 12.484-49.948 13.737-59.639 13.251-57.905 16.638-59.315 1.5056-0.62669 10.614-4.0605 20.241-7.6306 9.6271-3.5702 49.744-19.346 89.149-35.057s72.418-28.566 73.363-28.566c0.94504 0 3.6968 3.2571 6.1151 7.238 5.8422 9.6173 30.963 60.701 33.224 67.563 4.5486 13.802-3.1268 18.412-104.95 63.028-25.099 10.997-59.138 25.899-75.641 33.115-32.756 14.322-50.597 20.757-63.139 22.774-9.9354 1.5974-11.619 1.5637-18.816-0.37732z" fill="#ebebeb" stroke-width="1.2503"/>
<path d="m155.94 280.4c-7.1153-3.2324-10.617-8.3738-31.759-46.635-29.97-54.235-67.284-126.89-70.182-136.64-0.85238-2.8703-1.5498-7.3713-1.5498-10.002 0-11.622 7.0942-15.255 88-45.064 23.925-8.8149 53.4-19.846 65.5-24.513 41.368-15.956 44.36-15.864 55.98 1.7234 18.485 27.979 83.379 141.06 96.664 168.45 2.1242 4.3784 3.8556 9.4507 3.8556 11.295 0 7.9049-6.7018 11.322-82.505 42.068-67.552 27.399-90.081 35.902-103.99 39.25-9.9406 2.3923-14.866 2.4106-20.009 0.0743zm20.509-61.484v-4.3493l-10.25-0.5831c-5.6375-0.3207-10.993-0.86946-11.9-1.2195-1.3155-0.50724-1.7923 0.20299-2.3493 3.4998-0.38434 2.2749-0.45856 4.3764-0.16493 4.6701 0.86773 0.86773 10.647 2.0723 17.915 2.2066l6.75 0.12476zm38.024-0.80141 10.1-2.1507-0.67667-4.0993c-0.37217-2.2546-0.75117-4.1877-0.84222-4.2957-0.0911-0.10805-5.3272 0.84167-11.636 2.1105-11.075 2.2274-11.481 2.4009-11.795 5.0309-0.7517 6.3086 0.1926 6.5251 14.849 3.4043zm-83.578-10.794 2.821-2.9444-4.0497-4.6007c-2.2273-2.5304-4.8522-6.8323-5.8329-9.5598-1.8924-5.2626-1.7744-5.2214-8.1367-2.8413-2.2289 0.83383-2.2346 0.88532-0.57011 5.1165 2.8473 7.2376 10.152 17.774 12.322 17.774 0.3442 0 1.8952-1.325 3.4468-2.9445zm129.3-2.056c5.6375-1.8281 10.25-3.8588 10.25-4.5125 0-2.6498-2.3125-7.5818-3.3692-7.1857-0.62195 0.23314-5.7736 1.9413-11.448 3.796l-10.317 3.3721 0.65804 3.5077c0.81597 4.3495 1.364 5.2706 2.8276 4.7528 0.63187-0.22356 5.7614-1.9022 11.399-3.7304zm97.25-9.2888c0-6.0986-6.8313-14.362-13.915-16.831-3.7143-1.2948-4.5998-0.68413-5.5499 3.8274-0.62159 2.9516-0.40422 3.3206 2.7267 4.6288 3.7669 1.5739 7.738 6.0038 7.738 8.6321 0 2.4421 0.43936 2.6381 4.948 2.2082 3.3129-0.31593 4.052-0.76567 4.052-2.4656zm-53.562-6.5916c4.3661-1.1655 8.7536-2.1191 9.75-2.1191 1.9191 0 2.3319-2.4545 1.1533-6.8574-0.53974-2.0163-1.098-2.2816-3.8581-1.8337-4.642 0.75328-18.784 4.6408-20.307 5.5822-1.8753 1.159 1.6482 8.4037 3.7881 7.7886 0.84473-0.24283 5.1081-1.3951 9.4742-2.5606zm-170.19-33.558c2.6125-1.5133 4.75-3.0916 4.75-3.5073 0-2.2079-2.3652-7.0542-3.4428-7.0542-3.969 0-19.557 13.035-19.557 16.353 0 0.70608 1.4625 1.9825 3.25 2.8366 3.2304 1.5435 3.271 1.5305 6.75-2.1621 1.925-2.0432 5.6375-4.9531 8.25-6.4664zm98.75-12.061v-4.5h-25v3.9167c0 2.1977 0.54862 4.138 1.25 4.421 0.6875 0.27741 6.3125 0.53991 12.5 0.58333l11.25 0.0789zm-53.25 2.5071 5.25-7e-3v-9l-6.25 0.0844c-7.37 0.0995-17.43 1.262-18.28 2.1123-0.32941 0.3294-0.28368 2.2792 0.1016 4.333l0.70052 3.7341 6.614-0.62479c3.6377-0.34364 8.9765-0.62799 11.864-0.6319zm94.111-3.0996c4.1121-1.0517 7.6443-2.08 7.8494-2.285 0.20508-0.20509-0.35678-2.1964-1.2486-4.4253l-1.6214-4.0524-3.8075 1.3434c-2.0941 0.73885-7.2333 1.919-11.42 2.6226-7.307 1.2278-7.6129 1.3886-7.6129 4.0024 0 5.36 0.84194 6.1376 5.8348 5.3888 2.5026-0.37528 7.9145-1.5428 12.027-2.5945zm-173.73-10.537c1.139-1.0262 1.8529-4.0774 2.3499-10.044l0.71389-8.5702 6.177 6.1221c4.5253 4.485 6.9051 6.1221 8.9001 6.1221 3.785 0 6.7231-3.245 6.7231-7.4253 0-3.106-0.79997-4.0593-8.58-10.225-7.4498-5.9038-8.516-7.1322-8.0941-9.3247 1.8909-9.8266 2.8279-18.277 2.2722-20.491-1.2175-4.8508-9.0224-5.622-12.121-1.1977-0.86431 1.234-1.4823 4.4004-1.4903 7.6357-0.0075 3.0401-0.29944 6.5952-0.64874 7.9003-0.60126 2.2464-0.93686 2.0467-6.301-3.75-4.6545-5.0298-6.2345-6.1228-8.8513-6.1228-4.0341 0-7.1854 3.064-7.1854 6.9865 0 2.5164 1.3381 4.1199 8.5 10.187 9.3369 7.9091 9.2373 7.6555 7 17.827-2.1641 9.8388-1.9497 12.501 1.2067 14.984 2.9315 2.3059 6.4423 2.0774 9.4293-0.61371zm199.37-16.228c-0.76566-4.1288-5.395-13.165-9.036-17.639l-2.4391-2.9966-6.2891 6.2891 2.5145 3.352c3.3128 4.4162 6.743 11.319 6.743 13.569 0 1.5215 0.70404 1.741 4.591 1.4319l4.591-0.36514zm-136.51-12.211c5.225-2.3178 9.6853-4.3734 9.9117-4.5678 0.43471-0.37334-2.0031-8.3635-2.5517-8.3635-1.6356 0-21.651 9.5943-22.019 10.555-0.70389 1.8343 2.5816 7.6986 3.9771 7.0987 0.65033-0.27954 5.4574-2.4047 10.682-4.7225zm41.5-14.294c3.3-0.80743 7.9529-1.7775 10.34-2.1557 3.8209-0.60547 4.2708-0.94432 3.7637-2.8346-0.31682-1.1808-0.58218-3.1798-0.58969-4.4423-0.0125-2.0979-0.33611-2.2403-3.7636-1.6558-8.0937 1.3804-21.25 4.6528-21.244 5.2844 3e-3 0.36668 0.48021 2.3759 1.0603 4.4649 0.79368 2.8581 1.473 3.6756 2.7444 3.3027 0.92933-0.27256 4.3897-1.1562 7.6897-1.9636zm61.114-3.9375c1.1296-3.2629 1.0791-3.7934-0.43867-4.6057-2.4623-1.3178-16.454-4.0941-20.634-4.0941-3.514 0-3.5422 0.03466-3.5422 4.355v4.355l6.75 0.58717c3.7125 0.32294 8.55 1.2547 10.75 2.0706 5.1482 1.9093 5.5866 1.7449 7.1144-2.668z" fill="#f5f5f5"/>
<path d="m149.17 105.37s100.84-53.377 139.13-1.3019c38.294 52.075-102.12 37.754-102.12 37.754s-93.181-3.9056-65.099 53.377c28.082 57.282 173.6-7.8112 173.6-7.8112s54.887-19.528 58.717 10.415" fill="none" stroke="#363636" stroke-dasharray="24,24" stroke-width="8"/>
<g>
<path d="m92.25 134.56c-2.1107-0.80919-3.9487-2.6188-4.4847-4.4154-0.65201-2.1854-0.38252-4.9444 1.2273-12.564 1.9218-9.0967 1.828-9.3468-6.0473-16.116-5.5968-4.811-8.3022-7.4532-9.0072-8.7969-0.70778-1.349-0.71073-3.6083-0.0068-5.2142 0.61591-1.4052 2.2247-3.0088 3.6737-3.6619 1.4849-0.66929 4.4785-0.72274 5.6359-0.10063 1.449 0.77886 3.4833 2.6004 6.4056 5.7356 3.0862 3.3111 5.002 5.0746 5.3771 4.9495 0.62637-0.20879 1.2555-4.2489 1.2591-8.086 0.0025-2.6183 0.3518-5.4454 0.88688-7.1778 0.87239-2.8245 3.2793-4.4056 6.7587-4.4398 1.628-0.01601 1.928 0.05255 3.3067 0.75595 1.2201 0.62243 1.6475 0.98586 2.1879 1.8602 0.62015 1.0034 0.67727 1.2681 0.7457 3.4544 0.0915 2.9254-0.35968 7.0671-1.55 14.227l-0.91553 5.5069 0.5154 0.97153c0.6158 1.1608 2.7157 3.0805 8.0609 7.3692 4.8211 3.8682 6.8036 5.7081 7.5877 7.0418 0.52831 0.89866 0.59244 1.2282 0.58347 2.9988-8e-3 1.6526-0.10565 2.1966-0.57489 3.2148-1.2138 2.6341-3.027 3.9756-5.5961 4.1405-1.4185 0.091-1.7405 0.0341-2.791-0.49353-1.7759-0.89198-3.8344-2.6445-8.52-7.2534l-4.231-4.1618-0.13693 1.5032c-0.0753 0.82674-0.33093 3.6415-0.56804 6.255-0.82085 9.0477-1.372 10.49-4.6466 12.163-1.2478 0.63743-3.8959 0.80992-5.1359 0.33454z" fill="#f5f5f5" stroke-dasharray="4.3319322, 4.3319322" stroke-width="1.083"/>
</g>
<g>
<g transform="rotate(-20.283)" fill="#f00" image-rendering="auto" aria-label="X">
<path d="m68.572 105.95t0.16667 0q4.4583 0 6.3333 3.2916 1.6667 3.0417-0.33333 6.4583l-9.7916 17.167 9.7916 16.125q2.0833 3.4583 0.33333 6.8333-1.75 3.375-6.3333 3.375h-0.16667q-4.0417 0-5.5416-3.375l-6.4583-14.167-6.4583 14.167q-1.5417 3.3333-5.5416 3.375 0 0-0.91666 0-3.7083 0-5.5833-3.3333-1.8333-3.3333 0.33333-6.875l9.8333-16.125-9.8333-17.167q-1.9167-3.3333-0.29167-6.4583 1.625-3.2916 5.5416-3.2916h0.91666q4.0833 0 5.5416 3.375l6.4583 14.708 6.4583-14.708q1.4583-3.375 5.5416-3.375z" style=""/>
</g>
</g>
</svg>
