<?xml version="1.0" encoding="UTF-8" standalone="no"?>
<svg
   id="keymapdb"
   version="1.1"
   width="400"
   height="417.28394"
   viewBox="0 0 400 417.28395"
   sodipodi:docname="light.svg"
   inkscape:version="1.1.2 (0a00cf5339, 2022-02-04)"
   xmlns:inkscape="http://www.inkscape.org/namespaces/inkscape"
   xmlns:sodipodi="http://sodipodi.sourceforge.net/DTD/sodipodi-0.dtd"
   xmlns="http://www.w3.org/2000/svg"
   xmlns:svg="http://www.w3.org/2000/svg"
   xmlns:rdf="http://www.w3.org/1999/02/22-rdf-syntax-ns#"
   xmlns:cc="http://creativecommons.org/ns#"
   xmlns:dc="http://purl.org/dc/elements/1.1/">
  <title
     id="logo title">KeymapDB</title>
  <metadata
     id="logo metadata">
    <rdf:RDF>
      <cc:Work
         rdf:about="">
        <dc:format>image/svg+xml</dc:format>
        <dc:type
           rdf:resource="http://purl.org/dc/dcmitype/StillImage" />
        <dc:title>KeymapDB</dc:title>
        <dc:creator>
          <cc:Agent>
            <dc:title>precondition</dc:title>
          </cc:Agent>
        </dc:creator>
        <dc:description>Treasure map on a keycap</dc:description>
        <dc:subject>
          <rdf:Bag>
            <rdf:li>keycap</rdf:li>
            <rdf:li>keyboard</rdf:li>
            <rdf:li>X</rdf:li>
            <rdf:li>map</rdf:li>
            <rdf:li>treasure</rdf:li>
          </rdf:Bag>
        </dc:subject>
        <cc:license
           rdf:resource="http://creativecommons.org/publicdomain/zero/1.0/" />
      </cc:Work>
      <cc:License
         rdf:about="http://creativecommons.org/publicdomain/zero/1.0/">
        <cc:permits
           rdf:resource="http://creativecommons.org/ns#Reproduction" />
        <cc:permits
           rdf:resource="http://creativecommons.org/ns#Distribution" />
        <cc:permits
           rdf:resource="http://creativecommons.org/ns#DerivativeWorks" />
      </cc:License>
    </rdf:RDF>
  </metadata>
  <sodipodi:namedview
     pagecolor="#ffffff"
     bordercolor="#666666"
     borderopacity="1"
     objecttolerance="10"
     gridtolerance="10"
     guidetolerance="10"
     inkscape:pageopacity="0"
     inkscape:pageshadow="2"
     inkscape:window-width="1600"
     inkscape:window-height="874"
     id="namedview5335"
     showgrid="false"
     inkscape:snap-global="true"
     inkscape:snap-center="false"
     inkscape:zoom="0.70710678"
     inkscape:cx="74.953318"
     inkscape:cy="222.73864"
     inkscape:window-x="0"
     inkscape:window-y="25"
     inkscape:window-maximized="1"
     inkscape:current-layer="keymapdb"
     inkscape:pagecheckerboard="true"
     inkscape:snap-nodes="true" />
  <path
     style="fill:#ebebeb;fill-opacity:1;stroke-width:4.9;stroke-dasharray:19.6, 19.6"
     d="M 110.68912,398.1094 C 101.76474,386.76015 63.222948,311.6583 48.085756,281.76556 33.48005,252.9224 4.5818943,193.95741 3.7677868,183.39534 2.4149616,165.84404 3.5358078,169.46667 10.048235,156.26535 13.258198,149.75844 46.802047,93.413521 47.492,93.391 c 0.275,-0.009 2.419053,4.756754 4.754784,10.38174 C 54.582515,109.39773 64.627555,129.75 74.569096,149 114.99939,227.28597 137.3777,267.06279 148.26929,280 l 5.89316,7 -4.69339,47 c -5.5763,55.84153 -6.20525,63.49853 -5.05162,61.5 0.88572,-1.53441 4.98663,-18.66773 16.51826,-69.01219 7.52034,-32.83204 9.21341,-38.97091 10.86854,-39.40796 5.2876,-1.39626 40.64414,-15.09154 97.69576,-37.84225 92.96101,-37.07043 87.52492,-35.94223 89.21634,-33.7575 3.04067,3.92749 15.33847,26.98159 24.2339,45.21434 15.44148,31.65002 17.48859,37.34978 13.09058,43.57564 -5.22565,7.39748 -26.22662,16.37582 -95.95984,46.67498 -14.34454,6.23272 -43.01794,19.73001 -64.19294,29.07214 -62.16108,27.42465 -74.607,31.64296 -91.97472,32.35861 -8.02899,0.33085 -25.39984,-4.31609 -33.2242,-14.26641 z"
     id="keycap_side_fill_path"
     inkscape:label="#keycap-side-fill-path"
     sodipodi:nodetypes="sssscssscssssssssssss" />
  <path
     style="fill:#f5f5f5;fill-opacity:1;stroke-width:4.9;stroke-dasharray:19.6, 19.6"
     d="M 153.00522,279.36095 C 149.16334,276.77577 146.67157,273.80722 142.20989,266.5 121.35462,232.3438 59.209138,115.64935 52.890753,98.038755 48.486984,85.764575 51.056877,80.642552 59.674494,74.734514 69.420239,68.053056 76.97201,64.945878 140.5,41.478837 165.525,32.23468 195.9,20.873507 208,16.231785 220.1,11.590063 235.93368,5.4411193 238.53093,4.743531 c 6.3407,-1.7030335 11.83713,0.8233446 15.21495,3.3054822 1.46025,1.0730427 5.55814,5.6127908 9.34994,11.3877908 18.72833,28.523743 79.13327,132.823726 95.33753,165.114486 7.75016,15.44401 6.06103,19.42386 -5.93335,26.2414 -12.8874,7.32512 -134.84262,56.72891 -164,66.43603 -10.27798,3.42176 -15.03129,5.79315 -21.50261,6.17333 -8.34946,0.49053 -9.08585,-0.73967 -13.99217,-4.0411 z"
     id="keycap_top_fill_path"
     inkscape:label="#keycap-top-fill-path"
     sodipodi:nodetypes="ssssssssssssss" />
  <g
     inkscape:groupmode="layer"
     id="layer1"
     inkscape:label="Layer 1" />
  <path
     id="outline"
     d="m 232.099,3.545 c -4.753,1.767 -18.971,7.283 -31.594,12.258 -12.624,4.976 -47.624,17.983 -77.778,28.904 C 65.112,65.573 53.062,71.309 50.611,79.033 49.788,81.626 38.428,101.849 25.366,123.972 -7.445,179.55 -7.372,177.963 20.381,232.1 c 11.487,22.407 34.444,67.719 51.014,100.695 42.343,84.261 52.631,93.458 90.249,80.687 24.878,-8.447 227.633,-98.122 232.8,-102.964 8.502,-7.967 7.065,-17.099 -10.076,-64.022 C 375.771,222.96 368.028,200.129 367.162,195.76 365.33,186.515 266.564,16.13 258.511,8.32 251.216,1.247 242.518,-0.326 232.099,3.545 m 24.169,7.01 c 10.259,10.92 104.693,175.619 106.003,184.876 1.728,12.211 3.616,11.201 -97.255,52.031 -96.758,39.165 -103.38,40.76 -116.616,28.084 C 141.081,268.538 62.003,120.442 54.627,99.932 46.406,77.069 49.705,74.721 132.099,44.796 166.049,32.466 203.272,18.502 214.815,13.765 239.806,3.51 248.982,2.799 256.268,10.555 M 96.99,192.593 c 21.115,40.061 42.56,77.686 47.656,83.609 l 9.265,10.77 -5.4,53.428 c -7.568,74.868 -7.485,74.921 8.279,5.239 14.139,-62.496 13.66185,-57.51992 17.635,-59.219 1.88212,-0.80487 43.632,-16.111 92.41,-35.803 48.778,-19.691 89.572,-35.802 90.651,-35.802 3.276,0 40.045,73.495 40.045,80.043 0,12.73 -8.532,17.38 -122.222,66.619 C 105.845,434.87 131.29,444.699 44.64,272.368 -6.458,170.743 -5.51,181.358 31.083,120.624 l 16.409,-27.233 5.553,13.181 c 3.055,7.25 22.83,45.959 43.945,86.021"
     inkscape:connector-curvature="0"
     style="fill:#414141;fill-opacity:1;fill-rule:evenodd;stroke:none;stroke-width:279.2;stroke-miterlimit:4;stroke-dasharray:none"
     sodipodi:nodetypes="ccccccccccccccscccccccccccscsscccccc" />
  <g
     aria-label="X"
     transform="rotate(-20.282523)"
     id="treasure X"
     style="fill:#ff0000">
    <path
       d="m 68.572074,105.95443 q 0,0 0.166667,0 4.458333,0 6.333333,3.29167 1.666667,3.04166 -0.333333,6.45833 l -9.791667,17.16667 9.791667,16.125 q 2.083333,3.45833 0.333333,6.83333 -1.75,3.375 -6.333333,3.375 h -0.166667 q -4.041667,0 -5.541667,-3.375 l -6.458333,-14.16666 -6.458334,14.16666 q -1.541667,3.33334 -5.541667,3.375 0,0 -0.916666,0 -3.708334,0 -5.583334,-3.33333 -1.833333,-3.33333 0.333334,-6.875 l 9.833333,-16.125 -9.833333,-17.16667 q -1.916667,-3.33333 -0.291667,-6.45833 1.625,-3.29167 5.541667,-3.29167 h 0.916666 q 4.083334,0 5.541667,3.375 l 6.458334,14.70833 6.458333,-14.70833 q 1.458334,-3.375 5.541667,-3.375 z"
       id="treasureXpath" />
  </g>
  <path
     style="fill:none;stroke:#363636;stroke-width:8;stroke-linecap:butt;stroke-linejoin:miter;stroke-miterlimit:4;stroke-dasharray:24, 24;stroke-dashoffset:0;stroke-opacity:1"
     d="m 149.1688,105.3741 c 0,0 100.83967,-53.376586 139.13322,-1.30187 38.29355,52.07474 -102.11613,37.75419 -102.11613,37.75419 0,0 -93.18096,-3.90561 -65.09903,53.37659 28.08194,57.2822 173.59742,-7.81121 173.59742,-7.81121 0,0 54.88741,-19.52802 58.71677,10.41495"
     id="dashed path"
     inkscape:connector-curvature="0" />
</svg>
